{"title":"Impractical Jokers S03E08 Inside the Vault WEB-DL x264-JIVE","uid":9647281,"size":114083206,"categoryP":"video","categoryS":"tv_shows","magnet":"?xt=urn:btih:564b54e9b3ed124c238b20df4e6601ffee5e2c26&amp;dn=Impractical+Jokers+S03E08+Inside+the+Vault+WEB-DL+x264-JIVE&amp;tr=udp%3A%2F%2Ftracker.openbittorrent.com%3A80&amp;tr=udp%3A%2F%2Fopen.demonii.com%3A1337&amp;tr=udp%3A%2F%2Ftracker.coppersurfer.tk%3A6969&amp;tr=udp%3A%2F%2Fexodus.desync.com%3A6969","seeders":8,"leechers":0,"uploader":"fiddy01604","files":1,"time":1393027677,"description":"Screenshots\n &lt;a href=&quot;\nhttp://i.imgur.com/&quot; rel=&quot;nofollow&quot; target=&quot;_NEW&quot;&gt;\nhttp://i.imgur.com/&lt;/a&gt; mx6Uz4o.jpg\n\n\nMedia Info\n\nFormat                         : MPEG-4\nFormat profile                 : Base Media\nCodec ID                       : isom\nFile size                      : 109 MiB\nDuration                       : 21mn 40s\nOverall bit rate               : 702 Kbps\nWriting application            : Lavf53.21.0\n\nVideo\nID                             : 1\nFormat                         : AVC\nFormat/Info                    : Advanced Video Codec\nFormat profile                 : &lt;a class=&quot;__cf_email__&quot; href=&quot;/cdn-cgi/l/email-protection&quot; data-cfemail=&quot;632e020a0d232f574d53&quot;&gt;[email&amp;#160;protected]&lt;/a&gt;&lt;script cf-hash='f9e31' type=&quot;text/javascript&quot;&gt;\n/* &lt;![CDATA[ */!function(){try{var t=&quot;currentScript&quot;in document?document.currentScript:function(){for(var t=document.getElementsByTagName(&quot;script&quot;),e=t.length;e--;)if(t[e].getAttribute(&quot;cf-hash&quot;))return t[e]}();if(t&amp;&amp;t.previousSibling){var e,r,n,i,c=t.previousSibling,a=c.getAttribute(&quot;data-cfemail&quot;);if(a){for(e=&quot;&quot;,r=parseInt(a.substr(0,2),16),n=2;a.length-n;n+=2)i=parseInt(a.substr(n,2),16)^r,e+=String.fromCharCode(i);e=document.createTextNode(e),c.parentNode.replaceChild(e,c)}}}catch(u){}}();/* ]]&gt; */&lt;/script&gt;\nFormat settings, CABAC         : Yes\nFormat settings, ReFrames      : 2 frames\nCodec ID                       : avc1\nCodec ID/Info                  : Advanced Video Coding\nDuration                       : 21mn 40s\nBit rate                       : 503 Kbps\nWidth                          : 640 pixels\nHeight                         : 360 pixels\nDisplay aspect ratio           : 16:9\nFrame rate mode                : Variable\nFrame rate                     : 29.970 fps\nMinimum frame rate             : 29.412 fps\nMaximum frame rate             : 30.303 fps\nStandard                       : NTSC\nColor space                    : YUV\nChroma subsampling             : 4:2:0\nBit depth                      : 8 bits\nScan type                      : Progressive\nBits/(Pixel*Frame)             : 0.073\nStream size                    : 77.9 MiB (72%)\n\nAudio\nID                             : 2\nFormat                         : AAC\nFormat/Info                    : Advanced Audio Codec\nFormat profile                 : LC\nCodec ID                       : 40\nDuration                       : 21mn 40s\nBit rate mode                  : Constant\nBit rate                       : 192 Kbps\nChannel count                  : 2 channels\nChannel positions              : Front: L R\nSampling rate                  : 48.0 KHz\nCompression mode               : Lossy\nStream size                    : 29.4 MiB (27%)\n\n","torrent":{"xt":"urn:btih:564b54e9b3ed124c238b20df4e6601ffee5e2c26","amp;dn":"Impractical+Jokers+S03E08+Inside+the+Vault+WEB-DL+x264-JIVE","amp;tr":["udp%3A%2F%2Ftracker.openbittorrent.com%3A80","udp%3A%2F%2Fopen.demonii.com%3A1337","udp%3A%2F%2Ftracker.coppersurfer.tk%3A6969","udp%3A%2F%2Fexodus.desync.com%3A6969"],"infoHash":"564b54e9b3ed124c238b20df4e6601ffee5e2c26","infoHashBuffer":{"type":"Buffer","data":[86,75,84,233,179,237,18,76,35,139,32,223,78,102,1,255,238,94,44,38]},"announce":[],"urlList":[]}}